<svg version="1" xmlns="http://www.w3.org/2000/svg" width="933.333" height="933.333" viewBox="0 0 700.000000 700.000000"><path d="M332.8.5c-.1.1-4.8.5-10.3.9-5.5.3-10.9.7-12 1-1.1.2-4.5.7-7.5 1-18.9 2.2-52.5 10.4-70.7 17.2-38.6 14.5-63.9 28.2-93.6 50.7-16.6 12.6-38.3 32.5-50.2 46.1-26.6 30.4-48 64.8-62.9 101.3-6.1 15.1-12.4 34.2-15.1 46.3-8.1 35.2-10 52.2-9.9 86.5 0 19.3.6 31.9 1.9 39.7.2 1.3.6 4.5 1 7.3.9 7.6 1.6 11.6 2.5 16 .5 2.2 1.1 5.3 1.4 7 9.1 50 36.9 108.1 72.1 150.6 15.9 19.2 40.5 42.8 59 56.8 3.9 2.9 7.7 5.8 8.5 6.4 5.3 4 11 7.7 11.9 7.7.6 0 1.1.4 1.1.9s.8 1.1 1.8 1.5c.9.3 5.3 2.9 9.7 5.6 11.1 7 39.6 20.9 54.2 26.4 20.6 7.7 45 14.3 67.3 18 10.4 1.7 13.8 2.2 26 3.4 14.5 1.4 70.9.5 73.8-1.2.4-.2 3.1-.6 6-1 8.2-1 11.9-1.6 23.7-4.2 6.1-1.3 12.1-2.7 13.5-3 5.8-1.2 26.6-7.7 36.3-11.4 53.1-19.9 99.1-51.3 137.1-93.4 3.9-4.4 7.8-8.7 8.7-9.6.8-.9 4.4-5.4 7.9-10.1 3.5-4.6 6.7-8.6 7-8.9 1.3-1.1 16-24 20.5-32 20.5-36 35.2-76.7 41.1-113.7.5-2.6.9-5 .9-5.3.3-1.5 1.6-11.1 2-14.5.2-2.2.7-7.4 1.2-11.5 1-9.9 1-48.1-.1-59.5-4.3-49.1-17.7-93-41.9-137.4-20.1-37-42.6-65-78.2-97.1-7.6-6.8-31.5-24.7-39.3-29.5-.9-.6-3.6-2.2-5.9-3.8-7.3-4.8-40.4-21.4-51.3-25.8-20.1-8-50.4-17.2-64-19.3-11.1-1.8-30.3-4.6-35.5-5.1-6.2-.7-49.1-1.6-49.7-1zM374 38.6c.6.7 6.9 29.5 9.7 44.4.2 1.4 2.2 11 4.4 21.5 2.2 10.4 4.1 19.9 4.3 21 .2 1.1 1.8 8.7 3.5 17 1.6 8.2 3.3 16.5 3.6 18.4.3 1.9.7 3.7.9 4 .2.3.7 2.2 1 4.1 1 6.6 12.8 63.5 13.2 63.9.9 1 1.5-.9 1.5-5 0-5.3-1-17.9-1.5-18.8-.6-.9-2-14.6-3.1-29.6-.3-5-.8-11.3-1-14.1-.2-2.8-.7-9.5-1-15-.4-5.4-.8-12.4-1-15.4-.4-5.2-1.2-17.9-2-31.5-.6-10.3.1-12.1 8.1-20.5 8-8.3 10.8-13.8 9.2-18-1.1-2.9-2.6-4.4-9.3-9-6-4.1-12.3-9.8-13.7-12.4-1-1.8-.7-1.8 4.8-1.1 9.6 1.1 31.4 6.7 46.1 11.7 7 2.4 6.9 2.3 7.8 14.3.3 3.8.8 8.1 1 9.5.2 1.4.7 6.1 1 10.5.4 4.4.9 8.8 1 9.7.2.9.7 5.6 1 10.5l.7 8.8-3.3 3c-1.9 1.7-7.8 6.6-13.2 10.8-5.4 4.3-10.1 8.5-10.4 9.3-.7 1.9 2.2 5 6.3 7 4 1.9 4.3 3 4 15.1-.3 9.1 0 10.4 3.1 18.1 7.8 19.4 8.7 19.2 16-4.3 3-9.9 3.2-18.2.5-25-2.5-6.3-2-10.3 1.9-17.2l3.1-5.4.5-32.7c.2-18 .6-32.9.9-33.1.2-.3 2.5.5 4.9 1.7 4.5 2.2 4.5 2.2 4.6 7.4.1 2.9 0 6.4-.1 7.8-.3 3.6.7 2.1 3-4.1 1.2-3.6 2.4-5.4 3.4-5.3 2 .2 22.1 11.3 24.5 13.5 1.6 1.6 1.6 2.1 0 12-1.5 8.4-4.7 28.3-7.4 45.9-.2 1.4-1.1 6.8-1.9 12-.9 5.2-1.8 11.3-2.1 13.5-.3 2.2-.7 5.3-1 7-.3 1.6-1 5.7-1.6 9-1.8 9.8-1.9 10.5-4 19.5-1.1 4.7-3.1 12.3-4.4 16.9-1.4 4.7-2.3 8.6-2 8.9.9.9 7.4-4 12-9 4-4.6 20.5-28 20.5-29.3 0-.3 1.7-3.3 3.8-6.7 2.1-3.5 5.2-8.8 6.9-11.8 9.4-17.2 29.7-49 31.2-49 .9 0 23.1 22.6 23.1 23.5 0 .8-6.9 10.5-8.6 12-.6.5-2.8 3.2-5 6-2.1 2.7-5.1 6.3-6.5 8-1.5 1.6-5.4 6.4-8.8 10.5-3.4 4.1-8.1 9.7-10.4 12.4-20.4 24-38.8 48.7-36.8 49.4.6.2 3.9-1.3 7.4-3.2 3.5-2 6.9-3.6 7.6-3.6 1.5 0 2.8 3.6 3.2 8.6.4 5.9 1.5 7.3 6.2 8.1 17.9 2.9 35.8-1.5 82-20.1 10.3-4.2 19-7.6 19.3-7.6.5 0 6.4 12.3 6.4 13.4 0 .3-2.7 1.3-6.1 2.3-5.3 1.6-6.4 2.3-8 5.5-2.1 4.2-2.4 6.4-.8 7.3 1.2.8 16.1.8 18.2 0 1.6-.7 2.7 1.6 5.3 11.2.9 3.4 1.4 6.9 1.1 7.6-.5 1.3-18.6 6.4-31.1 8.8-4.9.9-22.1 3.5-30.1 4.5-2.2.2-5.1.7-6.5.9-1.4.2-4.3.7-6.5 1-13 1.8-21.1 4-32.7 9-25.6 11-27.7 12.2-27.5 14.4.1 2.3 5.7 8.5 13 14.6 4.5 3.7 5 4.6 8.1 15 7.4 24.1 7.5 24.9 6.9 38.8-.5 12.7-.4 12.9 2.3 17 3.5 5.3 14.4 16.3 25.7 25.8 12.4 10.4 13.7 11.3 14.7 10.3 1.1-1.1-2.2-10.6-7.3-21.7-2.1-4.3-3.7-8.8-3.7-10 0-1.2 1.3-3.7 2.8-5.6l2.8-3.3 9 4.2c11.2 5.4 19.1 13.1 32.4 31.5 5.1 7.1 11.5 15.6 14.2 18.8 4.5 5.6 5.8 9.1 4 11.2-.4.6-1.4 2.8-2.1 5-.7 2.2-4.8 11.2-9.1 20-17.9 37.1-35.1 61-65 90.4-34 33.3-75.8 58.4-122.5 73.4-31.3 10.1-58.5 14.1-95.5 14.2-26.2 0-41.6-1.6-66.5-7-98.6-21.3-184.1-93.4-222.1-187.2-9.6-23.7-17.4-52.1-19.8-72.3-.3-2.5-.8-6.1-1-8-2.6-21.3-2.7-52.5-.1-75.5.8-7.8 4.2-27 5.5-31.5.6-1.9 1.2-4.6 1.5-6 3.7-20.1 19.5-59 34-83.5 26.8-45.2 68.5-86.8 112-111.6 3.3-1.9 6.9-3.9 8-4.6 1.1-.6 4.9-2.6 8.5-4.3 31.4-15.5 61.2-25 96-30.5 3.9-.6 3.9-.6 13.1 12 8.9 12.1 9.5 14.3 10.5 37l.6 14.7 20.6 41.7c27.8 56 36.8 74.7 38.4 80.1 1.9 6.2 2.3 18 .7 22.7-1.9 5.6-5.7 9.5-8 8.2-1-.5-2.3-1.8-2.9-2.9-.8-1.6-4.6-16.6-6.5-26.3-1.3-6.1-6.6-15-12.4-20.8-6.3-6.3-23.1-16.7-23.1-14.4 0 1 4.8 21.2 6 25.5.5 1.9 1.9 7.4 3.1 12.3 2.9 12.5 5.9 19.3 12.3 28.7 3.1 4.5 5.6 8.9 5.6 9.7 0 1.5-12.2 24.2-13 24.3-.3 0-1.7-3.3-3.3-7.4-7.5-20.2-25.4-37.9-45.9-45.6-39.8-14.8-87.8 6.3-107.8 47.5-13.5 27.7-10.5 66.5 7.8 102 13.1 25.5 35.6 48.2 79.6 80.5 21.9 16.1 41.5 30.9 44.8 33.7 7.7 6.7 15.7 15.7 18.9 21.3 1.8 3.3 3.9 6.7 4.4 7.6.9 1.3 5-2.3 23.5-20.8 22.4-22.2 30.3-29 64.5-55.3 30.1-23.2 51.6-44 63.4-61.4 8.5-12.4 16.6-32.6 16.6-41 0-3.2-.2-3.4-6.3-5.3-10.7-3.3-16.6-8.2-16.4-13.8.1-4.1 1.5-6.3 7.6-11.4 6.7-5.8 8.4-9.2 8-15.9-.3-2.9-.6-7.7-.8-10.7-.3-4 .3-7.4 2-12.4 1.3-3.8 2.2-7.2 1.9-7.5-1.1-1-11.5-.1-17.6 1.4-6.9 1.8-12.7 5.1-15.7 8.9-5.3 6.8-5.4 20.2-.2 39 1.1 3.8 1.8 7.2 1.6 7.5-.3.4-1.7.8-3.3.9-6 .4-13.9-11.8-15-23.2-.8-8.7.3-12.4 9.7-32.9 8.2-18.1 10.8-25.3 9.7-27.9-.3-.9-6.3-6.2-13.4-11.8-14.9-11.9-20.2-17.3-24-24.6-1.9-3.7-3-4.9-3.5-4-2.1 3.7-4.7 20.2-7.3 45.1-2 18.7-5.7 30.4-11.4 35.9l-3.1 3-4.3-3c-6.6-4.7-7.1-6.4-7.2-26.4-.2-19.7-.1-19.2-10.8-46.5-10.2-25.8-21.4-55-22.8-59-.7-2.2-1.6-4.5-2-5-.3-.6-1.2-3.4-2-6.3-1.2-4.8-1.1-6.1 1.2-15.5 2.8-11.7 3.3-25.3 1-28.1-.7-.9-4.9-4.1-9.2-7.1-8.4-5.9-11.3-9.2-14.8-16.9C345 73.9 335 42.2 335 39.2c0-.6.8-1.2 1.8-1.5 3.4-.7 36.3 0 37.2.9zm169.5 65.9c5.7 4.4 10.4 8.5 10.4 9.1.1 1.3-13.7 23.6-20.4 33-2.6 3.6-5.2 6.3-5.8 6.1-.7-.2-1.9-2.8-2.9-5.8-2.4-7.9-1.8-22.7 1.5-34.4 3.9-13.6 5-16.6 5.9-16.3.5.2 5.6 3.9 11.3 8.3zm63.9 68.4c9.8 14.6 19.6 31 19.6 32.6 0 1-23.1 8.6-42.4 14-7.3 2-19.6 3.2-19.6 1.8 0-.5 1.7-3.7 3.8-6.9 4.7-7.2 13.2-15 23.2-21.1 9.1-5.6 11-7.2 11-9 0-.8-.4-1.2-.8-.9-.5.3-1.9.7-3.3.9-1.3.3-6.2 1.2-10.9 2.1-8.4 1.5-14.5 1.5-16.2-.2-1-1 3.4-6.3 16.6-19.9 6.1-6.4 8.2-8 9.2-7.2.8.6 5.2 6.8 9.8 13.8zm2.9 126.7c3 2.3 6 6.9 12.3 19.2 8.9 17.2 14.8 20.6 35.7 21.1l4.7.1V357.3l-3.2-.6c-22-4-42.6-10.2-57.3-17.3-4.9-2.4-10.1-5.2-11.5-6.3l-2.4-1.9 2.2-6.8 2.3-6.8-2.2-3c-1.3-1.7-2.8-3.5-3.6-3.9-3.6-2.2-.4-9.2 5.1-11.1 2.3-.8 4.8-1.7 5.6-2 2.8-1 9.8.1 12.3 2zM568 339.4c12.2 1 24.3 5.1 50.8 17.2 17.3 7.9 27.2 12 36.2 14.9 3 1 5.8 2.3 6.2 2.8.7 1.2.2 7.8-1.8 20.8-.8 5.3-1.4 9.9-1.4 10.3 0 1.7-3.6.1-38-16.6-10.7-5.3-26.3-12.5-34.5-16.2-22.5-10-29-16-29.8-27.2-.5-6.2 0-7.3 2.6-6.9 1.2.2 5.6.6 9.7.9z"/><path d="M588.4 258.4c-7.2 3.4-12.3 8.1-10.5 9.9.5.5 4.7 1 9.3 1 20.2.2 28.8-2.3 28.8-8.5 0-2.6-5.9-4.9-13.9-5.4-5.9-.3-7.4 0-13.7 3zM544.1 268.4c-.7.8-1.6 2.8-2.1 4.4-1.2 4.4 1.2 6.2 8.3 6.2 4.8 0 5.7-.3 6.2-2.1 1-2.9-1.2-7.4-4.1-8.8-3.4-1.5-6.9-1.4-8.3.3zM521.1 361.7c-3.1 1.6-3.3 1.9-2.8 5.9.6 5.3 4 10.2 8.4 12.1 3.1 1.3 3.8 1.2 6.6-.5 2.8-1.6 3.2-2.4 3.5-6.7.6-8.9-.6-10.6-8.9-11.9-2.1-.3-4.7.1-6.8 1.1zM506.6 388.3c-1.4 1.9-2.6 4.2-2.6 5.3 0 5.3 8.8 19 19.4 30.3 10.3 10.9 21.3 20.8 22 20 .2-.2-1.4-6.7-3.6-14.4-2.1-7.7-5-19.2-6.4-25.5-1.4-6.3-3.2-12.3-4.1-13.3-1.9-2-9.5-4.4-17-5.2-5-.5-5.3-.4-7.7 2.8z"/></svg>