<?xml version="1.0" encoding="UTF-8" standalone="no"?>
<!-- Created with Inkscape (http://www.inkscape.org/) -->

<svg
   xmlns:dc="http://purl.org/dc/elements/1.1/"
   xmlns:cc="http://creativecommons.org/ns#"
   xmlns:rdf="http://www.w3.org/1999/02/22-rdf-syntax-ns#"
   xmlns:svg="http://www.w3.org/2000/svg"
   xmlns="http://www.w3.org/2000/svg"
   xmlns:sodipodi="http://sodipodi.sourceforge.net/DTD/sodipodi-0.dtd"
   xmlns:inkscape="http://www.inkscape.org/namespaces/inkscape"
   width="800"
   height="600"
   viewBox="0 0 800.00001 600.00001"
   id="svg2"
   version="1.1"
   inkscape:version="0.91 r13725"
   sodipodi:docname="xplode.svg">
  <defs
     id="defs4" />
  <sodipodi:namedview
     id="base"
     pagecolor="#ffffff"
     bordercolor="#666666"
     borderopacity="1.0"
     inkscape:pageopacity="0.0"
     inkscape:pageshadow="2"
     inkscape:zoom="0.35"
     inkscape:cx="-33.959674"
     inkscape:cy="391.20823"
     inkscape:document-units="px"
     inkscape:current-layer="layer1"
     showgrid="false"
     inkscape:window-width="1366"
     inkscape:window-height="704"
     inkscape:window-x="0"
     inkscape:window-y="27"
     inkscape:window-maximized="1"
     units="px" />
  <metadata
     id="metadata7">
    <rdf:RDF>
      <cc:Work
         rdf:about="">
        <dc:format>image/svg+xml</dc:format>
        <dc:type
           rdf:resource="http://purl.org/dc/dcmitype/StillImage" />
        <dc:title></dc:title>
      </cc:Work>
    </rdf:RDF>
  </metadata>
  <g
     inkscape:label="Ebene 1"
     inkscape:groupmode="layer"
     id="layer1"
     style="display:inline"
     transform="translate(0,-452.36216)">
    <path
       style="opacity:0.98000004;fill:#c33825;fill-opacity:1"
       d="m 43.551161,541.63116 c -0.250363,0.17809 -0.658089,0.50821 -1.576821,1.23388 0.182684,-0.0338 0.681429,-0.23079 0.546552,-0.10163 -3.591239,3.43872 -7.637022,6.37553 -11.528896,9.47247 -2.234616,1.77822 -4.486273,3.53164 -6.745449,5.27732 2.323613,3.00068 10.227573,12.57415 17.721287,21.46119 61.049946,72.40112 66.838266,79.58539 86.599506,107.51022 29.39763,41.5425 51.02896,72.17714 67.66747,95.83024 8.26888,11.75479 21.38217,30.10177 29.14004,40.7715 7.7578,10.66978 16.57714,22.9427 19.59844,27.27322 l 5.49207,7.87459 -3.96596,-7.70052 C 244.31793,846.29852 217.17666,797.92518 186.18506,743.03773 155.19334,688.15036 124.66265,634.06758 118.33829,622.85442 100.49915,591.22494 84.222785,562.41367 73.482876,543.45111 c -3.330359,-5.88024 -6.379295,-11.33379 -8.495135,-15.16924 -4.612198,3.11444 -9.239386,6.20816 -14.000029,9.12414 -7.362214,4.50951 -6.685627,3.69068 -7.436528,4.22518 z m -51.4940803,40.0977 c -1.833807,1.39755 -3.6355767,2.83069 -5.3744257,4.33714 l -2.014667,2.55235 c 0.135575,0.19224 0.508023,0.35687 0.407894,0.57479 -0.687674,1.49457 -1.738322,2.80379 -2.607596,4.20546 -5.046693,8.81043 -11.595763,16.59748 -18.11432,24.38357 21.11006,21.78879 76.372233,79.06703 142.125724,147.33389 111.97768,116.25815 150.03073,156.26818 150.31909,158.05197 0.62557,3.8704 -1.1367,10.41131 -6.00028,22.26749 -5.73489,13.98019 -7.90078,22.08541 -6.41882,24.02198 1.70641,2.22985 5.62339,2.12064 11.16711,-0.30951 8.42855,-3.69471 14.0614,-0.57942 17.25472,9.54164 3.06504,9.71452 10.00758,15.83624 26.18174,23.08657 9.02889,4.0474 13.62437,5.3987 13.62585,4.0091 9.1e-4,-1.1354 -9.85644,-28.4653 -13.02231,-36.10279 -4.37044,-10.54373 -6.66402,-13.39516 -12.27019,-15.25782 -2.52971,-0.84055 -6.20331,-3.10763 -8.16327,-5.03787 -3.21628,-3.16777 -3.6645,-4.35705 -4.60174,-12.21689 -0.57118,-4.78947 -1.71498,-10.44898 -2.54203,-12.57486 C 270.99764,921.9938 237.08093,876.7515 168.29741,786.24873 112.08301,712.28367 51.678137,632.45056 34.063754,608.84225 L 6.1064887,571.37176 c -4.589516,3.5562 -9.424995,6.83582 -14.049204,10.35694 z M 125.36464,491.89767 c -0.78611,1.14832 -1.82257,1.95837 -2.99821,2.58371 2.05349,4.11241 4.57284,9.10354 7.14804,14.14319 5.2869,10.34641 13.24364,25.99687 17.68183,34.77858 4.43822,8.78171 33.09744,65.35337 63.68751,125.71457 30.59,60.36125 59.78565,118.0321 64.87893,128.15767 5.09327,10.12559 11.56562,22.98679 14.38321,28.58031 28.56908,56.71483 40.42745,80.40176 44.19983,88.29207 2.4543,5.13346 7.29654,14.71309 10.76145,21.28735 12.59266,23.89347 19.64826,40.90255 23.23895,56.0228 1.99981,8.42057 3.71927,13.41488 4.19949,12.19758 1.27779,-3.2387 1.75198,-43.14134 1.24631,-104.93261 -0.2058,-25.15041 -0.61381,-78.00732 -0.91762,-118.88713 -0.0961,-12.92959 -0.24347,-31.23485 -0.32742,-40.67841 -0.0839,-9.44355 -0.17257,-22.59065 -0.19666,-29.2148 -0.0241,-6.62415 -0.12106,-21.19378 -0.21582,-32.37672 -0.16376,-19.32219 -0.28164,-34.25251 -0.64057,-80.69679 -0.0865,-11.18929 -0.2055,-24.91643 -0.26453,-30.50477 -0.059,-5.58832 -0.26186,-31.39951 -0.45008,-57.35873 -0.39581,-54.58714 -0.8248,-94.07005 -1.11733,-102.77157 -0.12664,-3.76707 0.64092,-7.73158 1.76722,-10.73333 -8.85781,-4.53649 -17.35142,-12.68751 -19.94606,-18.97237 -0.61724,0.0829 -1.23383,0.16758 -1.8552,0.22871 -0.63141,0.22719 -1.41691,0.54807 -2.26294,0.90559 -2.88839,2.09286 -6.40498,3.15817 -9.65931,4.61776 -1.76511,0.79165 -3.02715,1.35892 -3.95512,1.76648 -8.06182,6.78122 -22.56276,14.14222 -31.00913,17.72875 -0.70401,0.29893 -1.41417,0.5821 -2.12432,0.8645 l 12.22934,68.68333 c 16.312,91.60575 22.96805,131.91185 24.34409,147.43499 1.04157,11.75002 2.41838,27.30284 3.06069,34.56098 0.64221,7.25822 1.62783,18.32597 2.18981,24.59471 0.56188,6.26862 2.48343,27.89301 4.27099,48.05428 1.78752,20.16127 3.69483,41.30017 4.23836,46.97637 0.54351,5.67621 1.08446,11.75703 1.20145,13.51267 0.21844,3.27858 2.32339,26.84952 6.33789,70.96917 1.25571,13.80035 2.13512,26.56348 1.95519,28.36182 -0.59574,5.95449 -4.88688,6.98728 -11.48819,2.7652 -5.53659,-3.54103 -22.5182,-26.16926 -24.79419,-33.0388 -3.07684,-9.28667 -43.97403,-129.02391 -50.50867,-147.87703 -7.8236,-22.57197 -8.11583,-23.58133 -8.48171,-29.27191 -0.66508,-10.34353 8.27887,-12.76785 17.65277,-4.78411 4.03155,3.43368 5.6584,5.81996 11.66348,17.10385 8.49662,15.96565 9.13156,16.81195 12.94751,17.26819 3.45294,0.41286 7.40712,-2.31365 10.82244,-7.46411 3.51426,-5.29967 2.97467,-19.29647 -1.71319,-44.4615 -3.19512,-17.15181 -4.03509,-25.00576 -3.63355,-33.94229 0.28736,-6.39483 0.69978,-16.07111 0.91744,-21.50203 0.43192,-10.77688 -1.24436,-18.0965 -6.66236,-29.0832 -6.024,-12.2156 -16.75578,-23.91536 -24.25746,-26.44629 -5.60057,-1.88956 -9.18324,2.14386 -12.70994,14.30979 -1.38244,4.76896 -3.19544,7.98248 -6.72368,11.91997 -4.58893,5.12119 -4.91101,5.96217 -6.45746,16.80299 -0.89536,6.27657 -2.17911,17.4185 -2.85228,24.76073 -0.67306,7.34223 -1.78303,13.77733 -2.46555,14.29964 -1.60442,1.22779 -4.75931,-2.87652 -7.46955,-9.71615 -1.12211,-2.83164 -6.6768,-23.94346 -12.3443,-46.91476 -12.56986,-50.94776 -22.67472,-91.65683 -28.97971,-116.77003 -1.27292,0.32667 -2.55352,0.63074 -3.83842,0.92025 -1.18667,0.47478 -2.42285,0.84655 -3.61745,1.3047 -3.13403,1.94679 -6.26724,3.89334 -9.46018,5.736 -1.27383,0.73513 -2.71199,1.14292 -4.00682,1.83962 -1.46795,0.78981 -2.84455,1.74051 -4.26689,2.61103 l -10.74921,5.7621 c -4.17714,2.06129 -8.26634,4.3182 -12.53147,6.18456 -4.70722,2.05981 -9.60248,3.64422 -14.35909,5.58278 -2.21403,0.90233 -4.34826,2.00326 -6.45148,3.14635 -0.52092,0.28315 2.22366,-0.74608 1.71797,-0.43612 -3.23914,1.98537 -6.65277,3.66644 -9.97896,5.49978 z m 70.08615,-35.92611 c 0.4107,-0.2551 0.82225,-0.50824 1.23299,-0.76323 -2.12753,0.48175 -4.24969,0.98151 -6.3307,1.62181 -1.58159,0.48664 3.2581,-0.52097 4.88749,-0.7816 0.0692,-0.0275 0.14063,-0.0504 0.21027,-0.0769 z m 1.23299,-0.76323 c 0.79497,-0.18002 1.58944,-0.36234 2.38444,-0.54147 0.59627,-0.23855 1.18369,-0.49705 1.73845,-0.82292 0.48863,-0.28706 1.13778,-0.69397 1.83933,-1.14127 -0.0386,-0.15351 -0.1103,-0.44694 -0.14855,-0.59923 -0.0395,-0.15707 -0.0575,-0.23364 -0.097,-0.39123 -1.91441,1.14928 -3.81833,2.31763 -5.71667,3.49612 z m -271.976744,239.9316 c 2.688129,4.92316 4.552468,10.6636 5.905681,16.52597 0.07357,0.11694 0.150994,0.23157 0.220041,0.35162 4.57344,8.00211 8.480068,16.37381 12.719791,24.56098 4.268987,21.94025 6.251327,23.42374 4.236708,43.94988 1.506461,4.36641 1.186661,5.71058 -1.038755,7.49621 -0.748017,3.88225 -1.752064,7.73261 -2.600243,11.59723 -0.232475,1.05921 -0.495551,2.12566 -0.768293,3.19632 0.06111,0.94225 0.141648,1.86014 0.279605,2.71731 1.875242,11.65134 1.222238,20.40125 0.872111,31.70678 0.209119,1.01839 0.325581,2.22985 0.369028,3.49807 0.06762,0.28919 0.123664,0.54965 0.186443,0.82602 3.635031,1.96723 7.647868,3.75187 11.62049,5.06565 8.828572,2.91958 13.926791,7.01912 27.076459,21.76874 32.7846,36.77342 31.698186,35.81959 42.994363,37.68851 10.431499,1.72599 17.092337,-0.39183 30.454291,-9.68448 5.564264,-3.86968 10.252416,-6.85869 10.418675,-6.64144 0.166258,0.21727 28.532511,23.86759 63.035209,52.55625 34.50276,28.68864 72.16615,60.03865 83.69771,69.66575 46.03772,38.4346 69.83799,58.1296 72.45683,59.9588 2.61746,1.8283 2.61249,1.7349 -0.12017,-1.921 -1.5792,-2.1128 -29.18765,-32.3005 -61.35256,-67.0829 -40.71561,-44.02867 -58.87764,-64.23789 -59.78359,-66.52648 -1.41909,-3.58474 -0.68192,-8.01737 3.4679,-20.85587 3.30785,-10.23352 3.18308,-13.78689 -0.69511,-19.7774 -4.30414,-6.64859 -9.81089,-7.63845 -22.31536,-4.01251 -9.82761,2.84975 -16.90683,3.98286 -20.31203,3.25038 -2.5854,-0.55611 -25.48562,-20.28079 -29.23615,-25.18184 -3.269174,-4.27205 -3.164834,-8.77488 0.26353,-11.39843 6.00171,-4.5928 21.74773,-1.58525 35.43412,6.76791 2.54855,1.5555 4.95603,2.5816 5.3506,2.27964 0.90645,-0.69365 -2.48881,-9.8735 -5.75189,-15.55123 -2.86959,-4.99306 -12.98068,-13.99529 -20.18548,-17.97143 C 101.6524,828.46927 95.839171,827.3053 80.770721,827.7904 58.325567,828.51289 56.677374,827.62401 29.304899,800.01916 12.724093,783.29752 -14.796419,755.70681 -75.292684,695.13971 Z M 379.30679,412.2768 c 6.82044,71.00964 8.74264,85.68363 12.90366,98.51386 2.37707,7.32953 5.20951,11.5547 6.8855,10.27215 1.16919,-0.89472 4.47423,-23.70014 7.43749,-51.31935 3.34134,-31.14306 5.90179,-48.7244 7.44222,-51.09655 0.10098,-0.15536 0.3249,-0.43477 0.4832,-0.64864 -2.47214,-11.52008 -36.28868,-17.47869 -35.15207,-5.72147 z M -63.346844,761.30371 c -0.03014,0.0335 -0.0096,1.99283 0.09641,5.94396 0.02245,0.0145 0.04334,0.0358 0.06368,0.0519 -0.0263,-3.43796 -0.121244,-6.0399 -0.159863,-5.99603 z M 8.1580677,731.01834 c -1.018084,0.72347 -1.876969,1.68391 -2.685981,2.92142 -1.167754,1.78626 -1.919633,3.9613 -1.671046,4.83276 1.250951,4.38602 19.8685953,32.62802 27.1562353,41.19509 13.174175,15.48716 21.119782,20.4075 43.687021,27.05622 14.943479,4.40253 25.829033,6.63676 30.574153,6.27457 5.74896,-0.43873 7.85891,-3.28596 6.17497,-8.32974 -1.21433,-3.63742 -2.81975,-5.665 -10.76113,-13.58404 -16.967303,-16.91955 -42.300008,-37.74548 -65.418657,-53.78314 -10.032413,-6.95957 -12.343074,-8.10669 -16.825144,-8.35019 -4.976163,-0.27027 -7.990576,0.17538 -10.2304213,1.76705 z M 449.40479,423.3575 c -0.84405,11.59055 -1.43927,19.63242 -1.54141,20.66696 -0.0862,0.87715 -0.41149,5.71408 -0.72186,10.749 -0.31035,5.03491 -0.61906,9.49823 -0.68579,9.91834 -0.0667,0.42011 -0.77782,10.0223 -1.58071,21.33863 -0.80291,11.31635 -1.61181,22.50307 -1.79731,24.85923 -0.18551,2.35615 -0.69297,9.689 -1.12783,16.29531 -0.43485,6.60631 -1.10222,15.87312 -1.48361,20.59337 -0.38141,4.72025 -1.09491,14.32431 -1.58479,21.34174 -0.48986,7.01745 -1.04999,14.69253 -1.24528,17.05618 -0.1953,2.36362 -1.25934,17.43334 -2.36404,33.48709 -1.10473,16.05374 -2.12464,30.11937 -2.26651,31.25696 -0.14188,1.13761 -1.50803,20.23464 -3.03606,42.43878 -1.52803,22.20414 -2.85694,40.73332 -2.95365,41.17634 -0.0967,0.44304 -0.42163,4.91879 -0.72246,9.94639 -0.30081,5.02763 -0.61132,9.49233 -0.68988,9.92148 -0.21071,1.15111 -3.09019,40.67176 -3.51036,48.17992 -0.19844,3.54616 -0.52258,8.38917 -0.7202,10.76242 -0.19765,2.37324 -1.01344,13.56528 -1.81224,24.87065 -0.7988,11.30537 -1.5165,20.90579 -1.59457,21.33458 -0.0781,0.4288 -0.39335,4.89712 -0.70073,9.92976 -0.3074,5.03263 -0.61356,9.49403 -0.68038,9.91419 -0.0668,0.42015 -0.37298,4.88154 -0.68035,9.91418 -0.30739,5.03264 -0.62263,9.50098 -0.70074,9.92977 -0.0781,0.42878 -0.79,10.03162 -1.58207,21.33967 -0.79212,11.3081 -1.49546,20.90441 -1.56305,21.32513 -0.0676,0.42075 -0.88237,11.91393 -1.8102,25.54004 -0.92789,13.62622 -1.74015,25.11749 -1.80481,25.53592 -0.0648,0.4186 -0.16873,3.39889 -0.23212,6.62318 l -0.1147,5.86229 3.40795,-10.14791 c 4.69679,-13.98184 7.64461,-19.08731 11.56539,-20.02833 3.79383,-0.9106 6.25779,1.0032 10.73952,8.33979 3.33544,5.45998 3.73558,5.78782 7.07414,5.7895 3.14352,0.002 4.3949,-0.72964 11.20445,-6.54863 10.95781,-9.36393 20.234,-19.38684 29.39203,-31.75363 4.38479,-5.92119 44.66571,-63.88185 89.51242,-128.80247 99.74771,-144.3958 152.23681,-220.34841 184.52967,-267.03832 -0.37391,-0.25336 -0.70478,-0.46602 -1.09534,-0.73646 -73.7617,-54.28461 -41.18307,-32.31266 -62.26763,-38.23772 -10.08059,-5.41203 -13.30267,-7.25571 -23.01373,-13.69984 -5.25803,-3.48917 -10.40888,-7.133 -15.61306,-10.69936 -13.94836,-9.51525 -45.21114,-30.61815 -56.62327,-39.56915 -7.8788,29.05418 -27.81674,97.91715 -40.75345,140.40733 -6.08328,19.98029 -9.61322,31.35879 -10.9299,35.23213 -0.81584,2.39995 -3.07311,9.57827 -5.01624,15.95171 -1.94323,6.37336 65.07201,-72.04697 16.94392,36.14665 -35.49449,79.79288 -27.73045,-1.5242 -29.82372,5.28698 -2.09328,6.81118 -4.9327,15.77392 -6.30944,19.91665 -1.37672,4.14275 -3.43387,10.5132 -4.57121,14.156 -1.13736,3.64281 -4.23927,13.3635 -6.89267,21.60216 -2.65339,8.23867 -5.70432,17.87999 -6.78103,21.42447 -1.90226,6.26214 -3.10828,9.99985 -8.0516,24.96323 -2.9647,8.9741 -4.35061,16.28087 -2.54343,13.40731 0.68372,-1.08714 3.05608,-4.87408 5.2724,-8.41484 6.67022,-10.65636 18.23831,-26.2119 24.20621,-32.54908 4.96495,-5.27217 5.89992,-5.92983 8.06067,-5.67148 2.02342,0.24192 2.63517,0.89278 3.55862,3.78095 1.412,4.41595 4.03949,7.8659 7.27346,9.54963 5.73675,2.98677 18.56667,-1.9978 27.5087,-10.68668 2.82418,-2.74436 5.34458,-4.98045 5.60091,-4.96965 2.18364,0.092 -19.93128,43.84899 -32.65497,64.61187 -16.05377,26.19704 -45.78198,68.33236 -63.57834,90.11062 -16.63433,20.35618 -25.58492,26.41217 -26.89455,18.19908 -1.12438,-7.05131 4.48971,-28.94519 15.06906,-58.76136 1.56041,-4.39782 2.84835,-8.38649 2.86184,-8.86403 0.0135,-0.47753 0.47291,-2.30788 1.02122,-4.06713 0.76008,-2.43868 0.69149,-2.74219 -0.29007,-1.27932 -9.47978,14.12824 -31.75504,35.50136 -36.03895,34.5799 -1.18297,-0.25447 -2.4717,-1.37706 -2.86456,-2.49419 -1.15163,-3.27475 6.05257,-46.1483 14.53224,-86.48502 1.38424,-6.58461 2.55739,-12.32282 2.60781,-12.75207 0.0504,-0.42927 1.5312,-7.00183 3.29045,-14.60588 1.75925,-7.60406 3.32959,-14.53304 3.48959,-15.39782 0.16005,-0.86483 1.07864,-4.89315 2.04155,-8.95131 0.96289,-4.05812 2.74061,-11.79496 3.9502,-17.19287 2.78187,-12.41428 11.14874,-48.34258 16.93173,-72.70658 11.93469,-50.28133 14.31431,-60.34234 16.41791,-69.44497 1.2489,-5.40432 2.57421,-10.96461 2.94526,-12.35612 0.37103,-1.39147 1.67146,-6.61373 2.89084,-11.60574 1.21939,-4.99202 3.22338,-13.07258 4.45273,-17.95693 2.13287,-8.47407 2.67741,-10.78188 4.43325,-18.79543 0.42338,-1.93228 1.60897,-6.86496 2.6349,-10.96118 1.02592,-4.09622 1.89889,-7.80701 1.94187,-8.24599 0.0427,-0.43909 1.58928,-7.33104 3.43551,-15.31659 7.4067,-32.38578 6.66456,-29.9326 11.41509,-50.35001 -0.31594,0.10698 -0.63861,0.19395 -0.97335,0.24163 -68.51037,-7.54746 -62.22783,-9.98389 -70.40438,-14.23256 1.04489,2.45844 2.15266,5.14066 3.33314,8.10302 0.42894,1.07642 -1.66022,-1.61368 -2.44879,-2.46009 -1.93149,-2.07306 -5.0444,-5.54155 -7.80522,-9.07141 z m 78.48321,16.61974 c 0.13685,-0.58646 0.23286,-1.0114 0.3761,-1.62135 -0.3761,1.62135 -52.13532,16.70653 -0.3761,1.62135 z M -54.408626,885.47842 c -0.597893,3.78396 -1.518912,7.52716 -2.073459,11.31783 -0.563489,3.85202 -0.712339,12.9904 -0.74044,15.9716 -0.08127,8.61061 -0.100226,10.44303 0.162457,13.94716 0.581584,0.98144 1.174869,1.97149 1.788869,2.98182 24.897013,-6.75985 58.2102807,4.11018 87.399988,42.25423 l 0.884444,1.15571 13.690652,17.8905 5.376481,7.02574 c 13.931047,6.44699 28.937437,13.37229 36.064123,16.63349 15.486091,7.0862 21.845401,10.0142 92.517381,42.5945 21.36694,9.8502 44.79639,20.6046 52.06553,23.8988 7.26907,3.2941 16.11024,8.0018 19.64686,10.462 8.19974,5.7037 18.48062,17.4248 20.39866,23.2577 2.47371,7.5227 -3.37898,17.559 -9.58886,16.4443 -3.24383,-0.5825 -18.74075,-11.6045 -27.9181,-19.8584 -9.31637,-8.3787 -15.4611,-10.9806 -30.61608,-12.9605 -10.71328,-1.3996 -38.6683,-0.4873 -41.05572,1.3397 -0.40609,0.3108 1.91243,1.9822 5.15122,3.7155 7.39336,3.9564 18.14378,12.1764 34.46686,26.3539 19.94432,17.3225 25.82746,20.3495 44.03161,22.6534 l 9.79495,1.2396 2.51338,11.2799 c 3.64358,16.3537 6.8553,25.1989 13.59945,37.4478 7.51174,13.643 17.28398,25.2356 29.22352,34.6688 17.64085,13.9376 35.62405,21.6144 58.34181,24.9038 40.91706,5.9246 80.45271,-7.8812 110.25187,-38.499 28.18987,-28.9644 40.37853,-68.9797 32.82486,-107.7718 -1.03977,-5.3392 -2.34674,-10.3025 -2.90326,-11.0297 -0.76128,-0.9948 -3.16371,-0.2141 -9.69656,3.1511 -10.82733,5.5778 -17.84432,7.3099 -24.5551,6.0613 -4.81906,-0.8967 -5.45612,-1.348 -8.37525,-5.9198 -3.39161,-5.3119 -3.35639,-6.1579 1.15435,-27.3509 1.63429,-7.6786 0.45732,-11.0185 -5.76809,-16.3546 -10.50421,-9.0036 -15.9513,-19.1273 -15.68828,-29.1603 0.0503,-1.9189 -0.31753,-3.6395 -0.81819,-3.8235 -1.25578,-0.4614 -10.84736,8.0789 -18.02729,16.0516 -13.28746,14.7546 -15.98875,28.0143 -8.41522,41.3091 3.40769,5.9821 9.2877,10.9712 21.99111,18.6654 5.58951,3.3856 10.95409,7.1911 11.92212,8.4561 2.10357,2.7489 1.00894,5.6524 -3.40318,9.0287 -4.07165,3.1158 -8.79184,3.9554 -14.14389,2.5162 -8.31809,-2.2368 -10.61676,-4.2348 -22.00794,-19.1348 -11.46649,-14.9991 -17.80179,-26.1079 -17.38612,-30.4927 2.41444,-25.467 1.70118,-34.5194 -3.22681,-40.9591 -6.74965,-8.8201 -19.25211,-10.6042 -41.30422,-5.8948 -16.60162,3.5455 -20.51801,3.204 -34.74167,-3.0246 -4.91083,-2.1503 -8.97103,-3.6217 -9.02277,-3.2689 -0.0516,0.3527 2.59061,4.8855 5.8732,10.0719 3.28251,5.1865 7.53842,13.6069 9.45561,18.7116 1.91713,5.1047 4.36125,11.6293 5.43197,14.5002 1.32249,3.5461 5.41602,9.8805 12.76555,19.7538 11.67794,15.6875 13.48088,19.5218 13.83164,29.4237 0.21105,5.9542 -2.88529,13.864 -6.51309,16.6403 -6.43087,4.9211 -16.96805,2.142 -29.98397,-7.9088 -6.94926,-5.3661 -7.73503,-6.2888 -12.56101,-14.7545 -2.83076,-4.9667 -6.93458,-10.8872 -9.11993,-13.1582 -3.82944,-3.9796 -13.40666,-9.6941 -94.43026,-56.3533 -31.00367,-17.854 -32.696,-19.404 -35.40685,-32.4239 -3.00372,-14.42661 -9.48067,-23.86475 -19.99003,-29.12698 -5.26573,-2.63662 -8.0482,-2.46806 -14.5311,0.87933 -10.88376,5.6196 -16.55936,3.98035 -43.2832,-12.50124 C 72.151196,963.00065 60.560613,955.91999 55.159553,952.67249 49.758492,949.42501 35.737801,940.83051 24.002962,933.57316 12.268046,926.31589 -1.7501963,917.71949 -7.1481673,914.46965 -12.546213,911.21985 -29.373505,900.91031 -44.542733,891.55974 Z M 771.46991,585.05513 c -1.85188,1.44484 -3.92411,3.1471 -6.28551,5.14128 -15.61404,13.18575 -37.33518,41.874 -62.09616,82.01508 -5.91899,9.5955 -15.85306,25.3777 -22.0753,35.07208 -20.04736,31.23431 -34.17378,54.32919 -38.53625,63.00043 -5.99342,11.91306 -0.40985,12.43274 19.63955,1.82681 16.1155,-8.52493 34.06417,-21.26871 44.57877,-31.65223 14.41894,-14.23918 45.88777,-36.48391 69.55612,-49.16629 10.48899,-5.62038 14.75636,-10.42788 22.19843,-25.00538 10.22957,-20.03761 12.35802,-36.71319 7.67636,-60.16182 -0.0409,-0.20486 -0.0825,-0.37905 -0.12354,-0.58062 -0.47654,-0.4715 -0.94238,-0.95389 -1.42583,-1.41871 -13.69076,-15.26476 -11.18324,-11.05572 -17.5237,-21.30417 l -1.44688,-1.39841 c -0.28404,-0.25869 -1.82977,-1.69839 -3.20683,-2.98082 -2.96049,0.94483 -6.23364,2.94938 -10.92924,6.61279 z m 16.34474,-1.49975 c 0.68077,0.84454 1.37551,1.67837 2.12129,2.46539 0.15805,0.16672 -0.15957,-0.43132 -0.23915,-0.6473 z m 51.13179,56.10681 c -0.38598,0.49554 -0.78006,1.00895 -1.16378,1.50074 -42.41845,54.36578 -90.61565,112.91371 -115.67878,140.52303 -21.89145,24.11533 -30.48618,33.05087 -83.63733,86.96495 -18.98574,19.25838 -53.87222,54.69441 -77.52653,78.74537 -23.65433,24.05095 -47.74864,48.51277 -53.54432,54.36052 -12.1876,12.2969 -18.40397,20.9073 -27.27275,37.7809 -7.01776,13.3518 -9.78005,21.7395 -7.94814,24.1334 0.79067,1.0332 4.86302,1.2459 11.9381,0.6248 17.39509,-1.5267 29.58968,2.6093 45.14509,15.314 26.92669,21.9923 25.90999,20.9834 30.18217,29.96 3.1669,6.6541 5.07351,8.2606 12.96843,10.9176 8.28253,2.7878 20.01208,4.1212 43.48096,4.9441 4.15012,0.1456 8.26371,0.324 9.14082,0.3961 0.87736,0.071 6.92906,0.2152 13.44926,0.318 6.51937,0.1017 13.0717,0.2165 14.55904,0.2545 1.67449,0.043 -0.54794,-1.274 -5.83748,-3.4587 -4.69782,-1.9404 -14.00732,-6.1719 -20.68675,-9.4043 -9.76981,-4.7279 -12.76981,-6.697 -15.35081,-10.0697 -3.47967,-4.5471 -3.78283,-6.8899 -1.49875,-11.6055 2.76906,-5.7171 9.82196,-9.2702 24.08417,-12.1317 10.25735,-2.0581 48.09486,-2.5774 62.25408,-0.8547 1.25453,0.1527 6.41736,0.4172 11.47222,0.5871 5.05488,0.17 10.22375,0.4415 11.48673,0.6033 1.26304,0.1618 5.87983,0.5227 10.26018,0.8039 8.60091,0.5512 13.46735,0.9329 44.28238,3.4733 l 2.5397,0.2098 c 4.20355,-3.6374 8.50001,-7.1632 13.07911,-10.353 12.68276,-11.8093 24.88176,-24.1631 37.93153,-35.5811 1.78735,-1.5641 3.78972,-2.8702 5.60412,-4.4028 1.78154,-1.5055 3.44996,-3.138 5.17544,-4.707 2.98371,-2.8 5.96844,-5.6001 8.9521,-8.4002 -0.64276,0.8175 -2.78975,3.0398 -1.92899,2.4532 1.1361,-0.7736 1.88344,-2.0011 2.78487,-3.0369 7.76453,-8.9226 7.0099,-8.6809 14.17723,-15.8162 2.68787,-2.676 5.40632,-5.32162 8.12752,-7.96426 -11.81456,3.0423 -21.5007,5.54876 -30.88603,7.99786 -12.31784,3.2143 -24.76285,6.3975 -27.65488,7.0747 -2.892,0.6771 -13.01168,3.2529 -22.48861,5.7232 -15.67932,4.0869 -40.79922,10.5596 -49.48942,12.7524 -1.90549,0.4808 -9.68316,2.4709 -17.28392,4.422 -16.68619,4.2838 -21.43274,5.4843 -28.37103,7.1826 -2.92362,0.7157 -7.80804,2.0301 -10.85503,2.9202 -3.0471,0.8898 -8.95431,2.4246 -13.12582,3.4104 -4.17164,0.9856 -19.75225,4.9328 -34.62355,8.7715 -60.63672,15.6522 -60.16289,15.5468 -68.06303,15.1149 -12.4717,-0.6818 -26.65488,-5.6487 -30.50824,-10.6841 -2.18955,-2.8613 -1.22009,-7.508 2.09569,-10.0454 2.55465,-1.9549 24.77834,-10.6288 50.82078,-19.8352 5.22519,-1.8471 21.43253,-7.8112 58.05555,-21.3644 5.61046,-2.0763 12.89122,-4.7157 16.17983,-5.8649 3.28861,-1.1492 15.38868,-5.59339 26.88855,-9.8766 11.49986,-4.28319 28.18306,-10.43559 37.07366,-13.67217 8.8906,-3.23656 20.75545,-7.58298 26.36602,-9.65911 5.61058,-2.07615 21.09049,-7.77535 34.40031,-12.66429 13.3097,-4.88908 34.83504,-12.81639 47.83488,-17.61523 12.99974,-4.79896 24.86894,-9.13971 26.37612,-9.64596 1.50716,-0.50623 12.1543,-4.41829 23.66029,-8.69349 9.24278,-3.4343 21.97606,-8.12409 36.24638,-13.36629 0.0488,-0.25597 0.0738,-0.39875 0.12533,-0.66617 0.2291,-1.18966 0.49072,-2.37503 0.80287,-3.54785 0.05,-0.1878 0.12735,-0.52638 0.20104,-0.82888 -0.75505,-3.67793 -0.95516,-6.05953 -1.03687,-12.73496 -1.4015,-9.57808 -2.52062,-12.29648 -0.61287,-7.71042 -0.0887,-2.16182 -0.23819,-4.31979 -0.26683,-6.48462 -0.0109,-0.82327 0.22362,-1.65208 0.14842,-2.47029 -0.63789,-6.93248 -1.15894,-10.40897 -1.4262,-11.99458 -0.88276,-1.30919 -2.21373,-3.56759 -4.2054,-7.38323 -45.02967,23.85136 -67.97116,36.30717 -80.73255,43.76096 -21.28448,12.43163 -24.79165,13.03937 -16.38438,2.84054 2.61864,-3.17666 9.25207,-8.93774 18.03804,-15.67192 17.81154,-13.64873 35.17043,-29.07632 37.8506,-33.63885 4.25231,-7.23845 -0.87248,-7.22898 -22.05334,0.0436 -23.31281,8.00441 -38.07849,15.68437 -65.81673,34.22712 l -16.09352,10.75757 -2.76453,5.96124 c -1.5214,3.27869 -2.56857,7.43227 -2.32714,9.23077 0.44834,3.34213 0.6671,3.57597 12.12426,12.88676 1.69873,1.38049 1.57277,1.69793 -1.33579,3.37475 -19.60078,11.301 -27.75096,15.86801 -42.77506,23.97118 -35.08985,18.92547 -61.30158,31.19797 -99.10026,46.39548 -36.14961,14.53464 -58.20274,22.04244 -63.84018,21.73604 -6.42612,-0.3489 -8.57066,-3.0538 -6.20706,-7.8326 2.46037,-4.9748 3.00434,-8.2277 1.66705,-9.9753 -1.41876,-1.8539 -9.21697,-3.57729 -10.77896,-2.382 -1.86559,1.4276 -9.48906,-0.6964 -11.38311,-3.17144 -2.66546,-3.48316 -2.25038,-7.07402 1.62158,-14.06906 4.61539,-8.33796 10.32792,-13.65828 17.88395,-16.65255 7.19017,-2.84918 13.20714,-1.99921 21.16102,2.98785 3.09163,1.93843 7.53789,4.71539 9.88149,6.17198 6.86062,4.2642 17.09109,5.30907 31.00859,3.16811 7.30876,-1.12431 19.07956,-8.72022 41.13233,-26.54269 44.83067,-36.23137 81.96708,-74.74319 77.58903,-80.46425 -1.97055,-2.57505 -6.49383,-1.41403 -20.82435,5.34916 -19.10777,9.01776 -20.9516,9.65922 -26.1499,9.09755 -5.31522,-0.57442 -9.03061,0.35394 -12.72185,3.17867 -5.86862,4.49095 -13.033,3.40385 -13.86966,-2.10513 -0.81207,-5.34664 2.12453,-8.77388 20.11638,-23.47514 19.38511,-15.83957 33.25269,-25.03919 40.09659,-26.59924 2.581,-0.58844 12.7431,-0.11195 22.5814,1.05997 18.83511,2.24365 19.23661,2.17465 24.52076,-4.32808 5.46423,-6.72453 13.04859,-11.76274 19.731,-13.10515 5.66414,-1.13776 9.21519,-1.32957 28.31534,-1.53297 19.08641,-0.20325 29.60069,-6.89437 56.87634,-36.19841 4.76365,-5.11811 8.6631,-9.73468 11.71557,-13.85931 -0.77602,-8.42166 -1.1206,-16.85012 -0.53231,-25.29271 -4.54214,-0.97415 -8.25871,-0.85375 -27.18159,0.34463 -10.60726,0.67165 -20.86292,0.98115 -22.79069,0.68933 l -3.50553,-0.5297 44.90467,-34.36324 13.62401,-10.42576 c -3.58757,-3.273 -7.10515,-6.61699 -10.3414,-10.27559 -4.13201,-4.67129 -9.34242,-8.83519 -11.64152,-14.64444 -0.0703,-0.17778 0.18449,-0.34425 0.27686,-0.51599 -4.54447,-5.17087 0.39317,0.15404 -10.59709,-8.50533 -8.31432,-6.55097 -15.80689,-13.66966 -22.98921,-21.42423 -0.2423,-0.26174 0.64538,0.31124 0.96848,0.46664 -2.0683,-1.96398 -4.19798,-3.86374 -6.32685,-5.76386 z M 592.24948,833.78722 c -3.33768,2.4877 -6.02861,5.8967 -11.03995,12.72783 -4.1686,5.68232 -9.22934,12.00546 -11.24582,14.05115 -2.01648,2.04565 -6.17841,7.9504 -9.24932,13.12092 -11.36993,19.14389 -11.06685,18.36175 -9.5562,24.60911 0.75958,3.14126 1.68612,6.1111 2.05863,6.59788 1.41982,1.85537 6.29756,-1.79517 16.13674,-12.07403 10.93575,-11.42417 17.45713,-16.9143 21.60304,-18.19018 1.42763,-0.43936 6.02639,-0.33531 10.21993,0.2308 7.22461,0.97526 7.8583,0.84912 12.09152,-2.39035 8.08624,-6.18798 16.43637,-26.64752 14.65213,-35.9019 -2.1043,-10.91443 -11.43493,-13.89617 -25.31334,-8.09041 -4.7747,1.99738 -7.76138,3.37431 -10.35736,5.30918 z m -65.88295,93.12804 c -13.44705,10.35841 -28.92706,41.09192 -18.06632,35.86857 1.24636,-0.59947 3.17149,-1.52731 4.27805,-2.06191 3.30274,-1.59579 6.14992,-3.87888 11.95327,-9.58748 3.02642,-2.97728 8.88856,-8.68588 13.0267,-12.68613 8.30351,-8.02681 10.32432,-11.71615 8.04713,-14.6919 -2.88841,-3.77448 -12.22818,-2.24158 -19.23883,3.15885 z m -55.17992,62.33435 c -4.44822,3.40394 -5.88174,10.65518 -2.61363,13.21989 1.30675,1.0256 4.13545,1.6248 6.41173,1.3565 4.83674,-0.5701 7.32999,-2.2943 10.07113,-6.96048 5.61208,-9.55352 -4.2559,-14.97253 -13.86923,-7.61591 z m 246.89131,-59.7869 c -8.30711,6.41122 -15.5424,14.23054 -13.9465,17.46819 1.01174,2.05249 7.28319,0.59308 14.40852,-3.35192 11.20462,-6.20329 23.2284,-20.17408 19.90987,-23.13448 -2.68623,-2.39635 -12.06464,2.60721 -20.37189,9.01821 z M 519.6097,1103.7779 c -2.21896,1.8008 -3.90143,4.4522 -4.97992,7.8996 -0.91258,2.9172 -1.2145,5.8852 -0.67063,6.596 1.0688,1.3967 10.07813,5.6943 13.51138,6.4449 1.15961,0.2537 3.57213,0.3699 5.36082,0.259 l 0,0 c 4.03895,-0.2505 5.1435,-1.0799 7.57008,-5.688 5.23217,-9.9361 -0.64141,-18.4785 -12.58911,-18.3078 -3.2263,0.046 -5.98269,0.9969 -8.20163,2.7976 z m 4.82827,37.9596 c -5.89678,4.5125 -7.90437,14.0964 -4.01648,19.1769 3.01958,3.9459 9.71385,5.2615 48.3742,9.5069 21.22915,2.3309 38.63185,4.0064 38.67338,3.7229 0.0415,-0.2835 -4.11923,-2.7245 -9.2461,-5.4234 -10.81306,-5.6919 -19.50849,-12.2722 -31.46258,-23.8092 -4.69189,-4.5282 -10.27591,-9.3347 -12.40874,-10.6814 -3.82298,-2.4138 -4.04475,-2.3909 -15.74978,1.6526 -6.52991,2.2557 -12.90367,4.8904 -14.1639,5.8547 z M 920.91881,863.23653 c 0.45199,1.16353 1.17619,2.70207 2.31513,4.08037 -1.08823,-4.24719 -0.32477,-1.34442 -2.31513,-4.08037 z m 2.38564,32.70827 c 0.0794,1.3487 0.16144,2.72533 0.23283,3.59588 0.0411,0.50058 0.39019,1.9628 0.3403,1.46312 -0.18323,-1.8368 -0.37879,-3.47864 -0.57313,-5.059 z m 1.33376,12.31266 c 0.003,0.0393 0.007,0.0785 0.0104,0.11779 0.004,-0.004 0.008,-0.006 0.0178,-0.002 -0.008,-0.0355 -0.018,-0.0773 -0.0257,-0.11243 z"
       id="path3401"
       inkscape:connector-curvature="0"
       sodipodi:nodetypes="scsscsssscccssscsssccsccssssssscsccscsscsccsssssssscsssssssssccccscsccsssssssssssssssssssssssssssscccssccsssscccsccccsccccccscccscscccsssssssccscsssssssssssscccssscccsccsssssscsscscsccssssssscssssssscssscsssccccscssssccscccsscssssssssssscsccsssssssssscscssssssssscccccssccccsssscscccssssccssssssccsssscsscssscssssssscssssccccsssscsssssscscccssscsssssscccccscccscsssssssssssscccssscscssscccscccccscssssssccsssssscssssscsccccccssccscccscccsscsssssssssssssssssssssssssccsccccsccscccssssssssssssssssssssscssssssssscssccsssssscssssscccsssccccccccc" />
  </g>
  <g
     inkscape:groupmode="layer"
     id="layer2"
     inkscape:label="Ebene 2"
     style="display:none"
     transform="translate(0,-452.36216)" />
</svg>
