<?xml version="1.0" encoding="UTF-8" standalone="no"?>
<!-- Created with Inkscape (http://www.inkscape.org/) -->

<svg
   xmlns:dc="http://purl.org/dc/elements/1.1/"
   xmlns:cc="http://creativecommons.org/ns#"
   xmlns:rdf="http://www.w3.org/1999/02/22-rdf-syntax-ns#"
   xmlns:svg="http://www.w3.org/2000/svg"
   xmlns="http://www.w3.org/2000/svg"
   xmlns:sodipodi="http://sodipodi.sourceforge.net/DTD/sodipodi-0.dtd"
   xmlns:inkscape="http://www.inkscape.org/namespaces/inkscape"
   width="100"
   height="100"
   viewBox="0 0 99.999997 99.999997"
   id="svg4326"
   version="1.1"
   inkscape:version="0.91 r13725"
   sodipodi:docname="xplodingheart.svg">
  <defs
     id="defs4328" />
  <sodipodi:namedview
     id="base"
     pagecolor="#ffffff"
     bordercolor="#666666"
     borderopacity="1.0"
     inkscape:pageopacity="0.0"
     inkscape:pageshadow="2"
     inkscape:zoom="2.8"
     inkscape:cx="17.342431"
     inkscape:cy="16.753337"
     inkscape:document-units="px"
     inkscape:current-layer="layer1"
     showgrid="false"
     units="px"
     inkscape:window-width="1366"
     inkscape:window-height="704"
     inkscape:window-x="0"
     inkscape:window-y="27"
     inkscape:window-maximized="1" />
  <metadata
     id="metadata4331">
    <rdf:RDF>
      <cc:Work
         rdf:about="">
        <dc:format>image/svg+xml</dc:format>
        <dc:type
           rdf:resource="http://purl.org/dc/dcmitype/StillImage" />
        <dc:title></dc:title>
      </cc:Work>
    </rdf:RDF>
  </metadata>
  <g
     inkscape:label="Ebene 1"
     inkscape:groupmode="layer"
     id="layer1"
     transform="translate(0,-952.36223)">
    <path
       style="fill:#33292a;fill-opacity:1"
       d="m 46.767233,1052.2998 c -10.29868,-0.7048 -19.84738,-4.3955 -27.89692,-10.7825 -2.59641,-2.0602 -5.4751,-4.8973 -7.58629,-7.4767 -3.1797198,-3.885 -5.9278897,-8.5493 -7.7673297,-13.1829 -4.06252005,-10.2337 -4.62567,-21.72717 -1.5831,-32.31017 2.954,-10.2749 9.2132097,-19.42334 17.7299897,-25.91414 2.5751,-1.9625 4.79937,-3.3627 7.66097,-4.8226 8.97804,-4.5804 19.14175,-6.3347 29.13012,-5.0279 5.44991,0.7129 10.50494,2.2276 15.35168,4.5998 2.72585,1.3342 4.07751,2.1145 6.29949,3.6366 2.66606,1.8264 4.64789,3.4643 6.97333,5.7633 2.58642,2.557 3.95454,4.1733 6.03245,7.127 2.53386,3.60174 5.09145,8.73514 6.456303,12.95844 2.599754,8.0447 3.114774,16.34417 1.54739,24.93637 -1.66486,9.1266 -6.368843,18.2486 -12.910143,25.0357 -3.19833,3.3185 -5.99954,5.619 -9.5866,7.8732 -6.57842,4.1339 -13.78919,6.616 -21.59319,7.4328 -1.91659,0.2006 -6.3631,0.2834 -8.25815,0.1537 z m 7.78277,-5.4484 c 10.51652,-1.1044 19.9804,-5.6849 27.37142,-13.2476 3.49772,-3.579 5.92634,-6.9938 8.13501,-11.4384 0.80178,-1.6134 2.02473,-4.5115 2.02473,-4.7981 0,-0.076 -0.32204,-0.4772 -0.71565,-0.8916 -0.3936,-0.4145 -1.20637,-1.4816 -1.80614,-2.3715 -2.15134,-3.1918 -3.42497,-4.3921 -5.48193,-5.1665 l -0.72373,-0.2724 -0.29923,0.3518 c -0.63963,0.7521 -0.63753,0.7451 -0.40255,1.3414 0.11687,0.2965 0.4043,0.9207 0.63873,1.387 0.42872,0.8528 0.95585,2.2824 0.95585,2.5923 0,0.3068 -0.37775,0.1712 -0.90592,-0.3251 -0.28786,-0.2705 -0.97599,-0.8527 -1.52918,-1.2938 -1.50096,-1.1969 -2.96859,-2.663 -3.42606,-3.4225 l -0.40271,-0.6686 0.0673,-1.8001 0.0673,-1.8001 -0.65086,-2.4354 c -0.35798,-1.3394 -0.739,-2.5783 -0.84672,-2.75295 -0.10772,-0.1747 -0.44538,-0.50832 -0.75035,-0.74122 -1.28745,-0.9834 -1.89251,-1.6948 -1.89251,-2.225 0,-0.074 0.41688,-0.3011 0.9264,-0.505 0.50952,-0.2039 1.64104,-0.7062 2.5145,-1.1162 2.46737,-1.1582 2.66416,-1.2075 7.25234,-1.8174 2.24188,-0.298 4.40302,-0.6382 4.80255,-0.7561 0.39953,-0.1178 1.41819,-0.3757 2.2637,-0.5731 0.8455,-0.1974 1.56439,-0.386 1.59753,-0.4191 0.0612,-0.061 -0.14469,-0.9182 -0.52375,-2.1798 l -0.20947,-0.6972 -0.49792,0.082 c -0.68397,0.1127 -2.26547,0.1119 -2.44407,0 -0.19102,-0.121 -0.0899,-0.661 0.22989,-1.2277 0.22583,-0.4001 0.28568,-0.4345 1.08352,-0.623 0.46447,-0.1096 0.86177,-0.2143 0.88289,-0.2325 0.0868,-0.075 -0.77255,-2.0563 -0.89178,-2.0563 -0.0712,0 -1.21851,0.4572 -2.54957,1.016 -4.77073,2.0028 -6.95951,2.7205 -9.19601,3.0154 -1.03452,0.1364 -2.65784,0.078 -3.19465,-0.1141 -0.36592,-0.1313 -0.38284,-0.1836 -0.51925,-1.6074 -0.0472,-0.4925 -0.11723,-0.7269 -0.23026,-0.7702 -0.0942,-0.036 -0.56755,0.1795 -1.12654,0.5132 -1.52359,0.9097 -1.57468,0.8925 -0.79795,-0.2692 1.3085,-1.9569 2.65979,-3.6619 6.23907,-7.8722 2.39247,-2.8143 4.34096,-5.21154 4.34096,-5.34074 0,-0.1257 -3.35391,-3.5656 -3.41336,-3.5009 -0.40314,0.439 -2.90165,4.398 -3.84248,6.08854 -2.16995,3.8992 -3.67909,6.2914 -4.80509,7.6167 -0.89328,1.0514 -2.13735,1.9621 -1.98901,1.4559 1.16206,-3.9649 1.41979,-5.2386 2.40354,-11.87864 0.35808,-2.4168 0.81431,-5.2899 1.01385,-6.3846 0.19954,-1.0947 0.3628,-2.0542 0.3628,-2.1322 0,-0.149 -0.72295,-0.6042 -2.49231,-1.5695 -1.50149,-0.8191 -1.45719,-0.8134 -1.60175,-0.2048 -0.0663,0.2793 -0.20855,0.6959 -0.31603,0.9258 l -0.19541,0.4179 -0.0299,-1.1257 -0.0299,-1.1257 -0.71119,-0.318 -0.71119,-0.3179 -0.0529,4.7261 -0.0529,4.7262 -0.51528,0.9335 c -0.60715,1.0999 -0.63647,1.4253 -0.21166,2.349 0.37462,0.8145 0.43299,1.60334 0.19736,2.66654 -0.20896,0.9428 -1.03902,3.3919 -1.20634,3.5592 -0.0776,0.078 -0.18389,0.077 -0.35221,0 -0.18089,-0.084 -0.39669,-0.5031 -0.86428,-1.6785 l -0.62319,-1.5664 0.0729,-1.4052 c 0.083,-1.60074 -0.009,-1.94464 -0.57487,-2.14184 -0.56706,-0.1977 -0.9514,-0.5345 -0.9514,-0.8338 0,-0.3328 0.31166,-0.6279 1.74692,-1.6541 0.5823,-0.4164 1.31481,-1.0037 1.62779,-1.3053 0.51506,-0.4962 0.56348,-0.5816 0.51023,-0.9 -0.0324,-0.1935 -0.23791,-2.1475 -0.45677,-4.3422 l -0.39794,-3.9904 -1.64745,-0.5352 c -1.89609,-0.6161 -3.10493,-0.9346 -5.01595,-1.3215 -1.64174,-0.3324 -1.65592,-0.3329 -1.58564,-0.064 0.10156,0.3884 0.89173,1.1647 1.63505,1.6064 0.40523,0.2408 0.97239,0.6496 1.26035,0.9086 0.58971,0.5302 0.62713,0.6992 0.35658,1.6104 -0.14289,0.4812 -0.30448,0.694 -1.12009,1.4751 -1.45335,1.3919 -1.39599,1.1804 -1.20222,4.434 0.45337,7.61294 0.81274,12.29744 1.02143,13.31484 0.25154,1.2263 0.38696,3.5223 0.22484,3.812 -0.10341,0.1848 -0.11191,0.1845 -0.21024,-0.01 -0.0564,-0.1112 -1.33657,-6.3966 -2.84491,-13.96754 -1.50833,-7.5709 -2.78486,-13.796 -2.83674,-13.8337 -0.15348,-0.1113 -4.09685,-0.2275 -4.91901,-0.1449 -0.50609,0.051 -0.75679,0.1211 -0.75679,0.212 0,0.3079 1.07834,3.9021 1.51663,5.0551 0.76266,2.0062 1.09842,2.4595 2.42587,3.2753 0.48111,0.2957 1.00467,0.6589 1.16346,0.8072 0.67543,0.6309 0.72215,1.8444 0.14947,3.8821 -0.22565,0.8028 -0.38524,1.6069 -0.38524,1.9408 0,0.4899 0.29243,1.3167 2.08071,5.88254 1.14439,2.9218 2.35861,6.0271 2.69826,6.9007 0.7869,2.0238 0.89134,2.682 0.74912,4.7209 -0.10298,1.4763 -0.061,2.1503 0.17102,2.7441 0.12943,0.3313 0.69973,0.8726 1.16835,1.109 l 0.35623,0.1796 0.368,-0.3531 c 0.48543,-0.4658 0.92322,-1.3465 1.18124,-2.3763 0.27284,-1.0889 0.3826,-1.8524 0.65294,-4.5418 0.23353,-2.3232 0.3894,-3.3085 0.68335,-4.3198 0.19541,-0.6723 0.32142,-0.7589 0.42408,-0.2914 0.10265,0.4674 0.84095,1.5503 1.51878,2.2277 0.3299,0.3296 1.26682,1.0919 2.08205,1.6939 1.90899,1.4097 2.06454,1.5557 2.06454,1.938 0,0.5718 -0.61103,2.1387 -1.51778,3.892 -0.49555,0.9582 -0.9992,2.0456 -1.11922,2.4164 -0.58547,1.8086 -0.27959,3.4312 0.93703,4.97062 0.41798,0.52875 0.4541,0.54955 0.95506,0.54955 0.28637,0 0.54491,-0.039 0.57454,-0.087 0.0296,-0.048 -0.0668,-0.46485 -0.2143,-0.92647 -0.66346,-2.0764 -0.84063,-3.7872 -0.50817,-4.9068 0.30424,-1.0246 1.27544,-1.8199 2.66444,-2.1819 0.87662,-0.2284 2.67509,-0.3357 2.67509,-0.1595 0,0.074 -0.17284,0.5178 -0.3841,0.9857 -0.41502,0.9193 -0.42115,1.0325 -0.18548,3.4266 0.10732,1.0902 -0.0683,1.383 -1.53528,2.559 -0.57153,0.4582 -0.79246,0.89202 -0.72197,1.41767 0.11508,0.8581 0.95486,1.5007 2.46627,1.8873 0.45091,0.1153 0.84272,0.2326 0.8707,0.2606 0.0904,0.09 -0.18516,1.5026 -0.46934,2.4057 -0.82709,2.6283 -2.57656,5.1678 -5.56817,8.0828 -1.94824,1.8983 -3.43695,3.1298 -7.2304,5.981 -3.61048,2.7137 -4.45738,3.4509 -7.02356,6.114 -1.14487,1.188 -2.44448,2.4878 -2.88803,2.8884 l -0.80646,0.7284 -0.39157,-0.7924 c -0.9121,-1.8457 -2.42958,-3.318 -6.17052,-5.9866 -7.04602,-5.0263 -10.34773,-7.846 -12.65335,-10.806 -3.69677,-4.7461 -5.21213,-11.17245 -3.77538,-16.01077 1.32351,-4.4569 5.59177,-8.1894 10.30506,-9.0114 3.64047,-0.6349 7.24084,0.554 9.94331,3.2835 1.20451,1.2166 2.22207,2.906 2.65835,4.4135 l 0.17555,0.6066 0.29469,-0.5536 c 0.16208,-0.3046 0.61125,-1.1166 0.99817,-1.8046 0.81776,-1.4542 0.83574,-1.2668 -0.2639,-2.7501 -0.34945,-0.4713 -0.72104,-1.0266 -0.82576,-1.234 -0.35641,-0.7057 -0.73359,-2.0033 -1.22364,-4.2097 -0.26909,-1.2116 -0.60867,-2.6021 -0.75462,-3.09 -0.15506,-0.5184 -0.22619,-0.9264 -0.17112,-0.9814 0.118,-0.1181 1.86284,0.9183 2.72653,1.6194 0.73918,0.6 1.20485,1.1385 1.70997,1.9772 0.45894,0.762 0.71213,1.5842 1.03353,3.356 0.30917,1.7044 0.5543,2.3221 0.96212,2.4245 0.36116,0.091 0.55565,-0.074 0.9544,-0.8064 0.52901,-0.9721 0.47697,-2.6649 -0.13442,-4.3726 -0.14595,-0.4077 -2.06636,-4.3441 -4.26758,-8.74754 l -4.00222,-8.0064 -0.0751,-2.4764 c -0.086,-2.8356 -0.0992,-2.8872 -1.13101,-4.3994 -0.74729,-1.0953 -1.6603,-2.2596 -1.77183,-2.2596 -0.0471,0 -0.65022,0.095 -1.34022,0.2123 -11.18613,1.8934 -21.05136,7.8028 -28.06115,16.8093 -3.35259,4.30754 -6.1054098,9.73904 -7.5801897,14.95624 -1.21654,4.3037 -1.6968,7.7951 -1.6968,12.33577 0,7.1795 1.48494,13.535 4.6419099,19.8675 2.3365298,4.6867 5.0364998,8.3812 8.8532198,12.1141 3.5085,3.4315 6.96435,5.8862 11.38169,8.0843 5.52807,2.7508 11.14883,4.2085 17.77095,4.6085 1.19893,0.072 5.08473,-0.048 6.56522,-0.2035 z m 22.49293,-31.6747 c -2.43705,-2.1732 -4.39625,-4.5514 -4.87746,-5.9207 -0.27686,-0.7878 -0.25681,-0.9357 0.19468,-1.4355 l 0.39498,-0.4372 0.84903,0.057 c 0.92497,0.062 1.5895,0.2612 2.18568,0.6548 0.36651,0.2419 0.3894,0.293 0.50851,1.1341 0.12649,0.8933 0.56238,2.6406 1.2103,4.8516 0.46228,1.5776 0.51293,1.8001 0.40976,1.8001 -0.0471,0 -0.44104,-0.317 -0.87548,-0.7043 z m -1.95449,-8.5946 c -0.67991,-0.434 -1.11168,-1.2041 -1.11168,-1.9827 0,-0.2816 0.0685,-0.391 0.35659,-0.5691 0.42499,-0.2627 0.8912,-0.2786 1.64051,-0.056 0.66723,0.1981 0.75562,0.3708 0.75562,1.4765 0,0.7454 -0.0141,0.7901 -0.31662,1.0056 -0.45583,0.3246 -0.94076,0.3706 -1.32442,0.1257 z m 2.75271,-14.39047 c -0.53054,-0.1304 -0.62412,-0.5952 -0.26253,-1.3041 0.19948,-0.391 0.24482,-0.4193 0.67252,-0.4193 0.90255,0 1.53281,0.7647 1.24359,1.5089 -0.10758,0.2768 -0.14599,0.2906 -0.7775,0.2789 -0.36538,-0.01 -0.75962,-0.036 -0.87608,-0.064 z m 4.84372,-1.409 c -0.29739,-0.1196 -0.29723,-0.1955 0.001,-0.6386 0.18205,-0.2702 0.50603,-0.4778 1.34989,-0.8649 1.09477,-0.5023 1.12225,-0.5088 1.95735,-0.4564 1.44438,0.091 2.16118,0.4168 2.02564,0.9218 -0.15426,0.5747 -0.4124,0.7427 -1.45446,0.9464 -1.06687,0.2086 -3.44897,0.2648 -3.87974,0.092 z m 11.39376,19.03637 c 0.19415,-1.1321 0.43762,-3.1398 0.43762,-3.6086 l 0,-0.4477 -1.40282,-0.4621 c -0.77156,-0.2541 -2.26041,-0.864 -3.30856,-1.3553 -5.45162,-2.5556 -6.87059,-3.0403 -9.29041,-3.1734 l -1.13814,-0.063 -0.0185,0.4121 c -0.0954,2.1219 0.77814,3.0324 4.30641,4.4886 1.52038,0.6275 2.76439,1.2157 7.46409,3.529 1.48488,0.7309 2.73062,1.3319 2.76832,1.3354 0.0377,0 0.1196,-0.2913 0.18202,-0.6553 z m 0.64937,-7.6503 0,-1.2177 -0.68052,0 c -0.96256,0 -2.22264,-0.1918 -2.8827,-0.4388 -0.89966,-0.3367 -1.42422,-0.95265 -2.23297,-2.62247 -0.9164,-1.892 -1.31801,-2.4919 -1.89459,-2.8298 -0.40642,-0.2382 -0.56017,-0.2684 -1.17908,-0.2316 -0.47339,0.028 -0.91366,0.1356 -1.31481,0.321 -0.55636,0.2571 -0.61499,0.3183 -0.75644,0.7901 l -0.15333,0.5114 0.47161,0.4598 c 0.70932,0.6915 0.73109,0.8244 0.30233,1.8461 l -0.36535,0.87072 0.28497,0.2349 c 0.90776,0.74805 3.25628,1.79135 5.43211,2.41295 1.27923,0.3654 4.41031,1.0876 4.78349,1.1033 0.16617,0.01 0.18528,-0.1178 0.18528,-1.2099 z m -10.16387,-18.73357 c 2.85293,-0.8286 5.08193,-1.5384 5.08193,-1.6182 0,-0.291 -2.12096,-3.796 -3.219,-5.3196 -1.0312,-1.43084 -1.15709,-1.59454 -1.22687,-1.59454 -0.0359,0 -0.88895,0.88734 -1.89572,1.97174 -1.69232,1.8229 -1.81745,1.9847 -1.65773,2.1442 0.28939,0.289 1.67655,0.2076 3.22138,-0.189 0.72039,-0.185 1.33135,-0.3148 1.3577,-0.2884 0.0263,0.026 -0.0237,0.1864 -0.11118,0.3556 -0.11043,0.2135 -0.40532,0.4294 -0.96404,0.7055 -1.63608,0.8087 -3.49044,2.4737 -4.15971,3.735 -0.18925,0.3566 -0.34409,0.6833 -0.34409,0.7259 0,0.043 0.41688,0.054 0.9264,0.024 0.70083,-0.04 1.42908,-0.1991 2.99093,-0.6527 z m -7.33099,-11.60304 c 0.78664,-1.1938 1.55372,-2.4224 1.70463,-2.7301 l 0.27437,-0.5594 -0.31494,-0.2613 c -0.65514,-0.5434 -2.82144,-2.2214 -2.90834,-2.2527 -0.11711,-0.042 -0.81505,2.1879 -1.07066,3.4211 -0.35823,1.7282 -0.23882,3.6056 0.29524,4.642 0.15185,0.2947 0.15929,0.2968 0.37219,0.1059 0.11949,-0.1071 0.86087,-1.1716 1.64751,-2.3655 z"
       id="path4463"
       inkscape:connector-curvature="0" />
  </g>
</svg>
